Coordinates
version=1
nRows=21
nColumns=24
inDegrees=yes

Units are S.I. units (second, meters, Newtons, ...)
If the header above contains a line with 'inDegrees', this indicates whether rotational values are in degrees (yes) or radians (no).

endheader
time	pelvis_tilt	pelvis_list	pelvis_rotation	pelvis_tx	pelvis_ty	pelvis_tz	hip_flexion_r	hip_adduction_r	hip_rotation_r	knee_angle_r	ankle_angle_r	subtalar_angle_r	mtp_angle_r	hip_flexion_l	hip_adduction_l	hip_rotation_l	knee_angle_l	ankle_angle_l	subtalar_angle_l	mtp_angle_l	lumbar_extension	lumbar_bending	lumbar_rotation
1.5	5.761443955438744	3.103205182392316	-1.1130529208438964	0.5905277494179838	1.0357157853475576	-0.009568879335792962	20.51146847378688	-9.080399524275853	-8.867505901889881	-43.03426271847389	-3.6879845108183726	-9.483966153734523e-06	-7.748933034652445e-10	-8.388465660575077	6.15823318048235	-1.0588736115371846	-20.757638889219688	9.744027862237248	-1.30831025304197e-06	-9.48081272437165e-16	-15.841373999984086	-5.713161824639611	-5.8194941741872634
1.517	6.194457019537689	-2.6121536126418925	-3.749905139409937	0.5952962645276113	1.020645931524967	-0.024001014831724708	13.472577984614494	-7.280603938321173	-3.7581127830627454	-86.73289091812036	-2.2499714328805283	-6.206914730490722e-06	-2.5165104622650237e-10	-9.285943804369477	3.54605993367501	2.066772311342014	21.22672117597859	4.3337381304585225	1.466708490149606e-06	1.4240132932737949e-15	-15.273914094575227	-3.7039159590265416	-5.963282919077409
1.533	6.165142756667254	-2.6734853848203257	-0.6185719609582725	0.603862744482397	1.0302910470121314	0.006449645026337595	9.350210221063012	-2.5674733753417955	-3.0505866872629763	-70.1355748537347	4.7897752017638195	-7.859544086634691e-06	1.6532408712656537e-09	-0.29145160919151447	-0.31464936154111856	1.9680587746496079	-15.609146383783674	1.4685852567353144	4.076159193952844e-06	-1.6413125580960992e-15	-15.418114393103838	0.9736337662116785	-4.869314484039017
1.55	6.082056487002148	-0.2511818788213037	-0.8510236844063336	0.5962929277726143	1.0531946060937047	-0.016128218251144202	22.90143260725518	-7.6205263333662385	-9.413468774623839	-79.38688891992014	-0.2991521824339385	-9.529615910367332e-06	-9.66897698719686e-10	-2.4864001823347577	4.256189444664997	1.1384383664820084	-19.609087481048725	4.632665393937047	4.784198920251032e-07	7.140487721393589e-16	-15.630002727418256	-3.322110228114672	-6.403888616719841
1.567	6.347111313432076	-1.3122337939377273	-0.00824733972094227	0.5934458211127028	1.0636795820210596	-0.010341960306167125	20.38019729159338	-5.242949596879629	-10.263827986626682	-80.7764377877088	0.3032759112668375	-8.357080237127394e-06	3.992389283688532e-10	0.8512557968100074	2.012754835239811	-4.3345771488125004	-11.827267571992946	3.7421482329717777	-4.104555395024101e-06	5.795213019732301e-16	-16.084768899704176	-1.946041188780545	-5.6764295384919095
1.583	6.08046906558534	0.22743748856314672	0.13125654852174817	0.5902069654329992	1.0325723509536155	-0.034827154036044874	31.587455455400875	-9.373326511791861	-9.554480678456983	-74.35186781528085	-3.9819043986031573	-1.0130529909420737e-05	1.3482026484454036e-09	-21.236180819750377	6.483645619786315	5.324868739207491	5.93502661804389	11.607431308193483	2.2051824814537356e-06	-1.4740381410559577e-15	-15.458770970655907	-3.745259442481811	-10.82916414410952
1.6	5.811707530784594	-6.404312641863117	-0.6057872095037555	0.583155682330415	1.060594500101424	0.05250947689872541	-12.944828548514703	8.005979693498135	0.823793695323058	-36.58861423802148	20.213716835362863	-2.6146362708094264e-06	4.073570735122496e-13	28.363647333172416	-8.810765864313234	-8.002058978780143	-21.5396400909216	-4.270806424074184	-3.086526868319873e-06	1.1551667432811448e-15	-18.066798482009517	7.081729122209402	3.412225221638379
1.617	6.487596699750664	1.59551262642994	2.2002413857493637	0.6027837973509376	1.0343264799191465	-0.03939011256474004	40.32072957044941	-10.280565697969479	-10.729795515244025	-77.27469013945623	-7.364630279513996	-7.953544816160878e-06	-3.6047097983160047e-10	-26.831940765806927	7.542298382398451	8.61040079071166	-15.917727109114733	10.697566795430191	4.545913839823959e-06	-1.7910832675243347e-16	-14.7160677391516	-4.04534491922593	-13.309212624025767
1.633	4.62413680448751	-0.9574709183177925	0.8235770174771855	0.5801397296185163	1.0202275927413147	-0.024383317910938163	27.9636136287577	-4.799144488974507	-8.725939954982469	-39.46239721023947	-1.8431517021376451	-3.87346850990701e-06	-3.756412593980828e-10	-22.381403968768424	3.8731395902540195	6.297237717850581	10.40622155063772	12.241736192006181	2.292562126559359e-06	-5.31926560826034e-17	-14.969358036289616	-1.5537457613316177	-9.139557141405914
1.65	4.79824200838428	0.41729620457838235	2.9035753218361737	0.5792651903827365	1.018639168003607	-0.020648716700098782	32.30035320375358	-4.363899845066453	-7.392786639200765	-28.54985489482384	0.49455302938731327	-4.4341633618788825e-06	7.659140573935576e-10	-28.323597037018175	3.971884110820855	8.631316246428604	2.205612085321029	17.382232607256086	2.3285679442436996e-06	1.5152044541851568e-15	-15.353813064811385	-0.7903864953465735	-11.122936967136571
1.667	4.352437033978347	-1.2228424631462425	1.874845578280369	0.567949071780773	1.0244813765816512	-0.0006308601020522976	20.04181264731476	-0.4744863859764954	-9.807653156577551	-0.07086244134897868	5.542087922394872	-3.872405314924989e-06	-8.856887742804556e-10	-14.55956756907083	0.7747362281347658	0.8900270496963468	-0.7921026921925876	8.123384646218067	1.7573933705212295e-06	-9.42570388343605e-16	-16.257872768817506	1.638284028921091	-6.162643136047501
1.683	5.538510958864446	-4.816409268138781	-2.396323202723621	0.5852399171972299	1.0441007874011643	0.002230394911652245	4.774977171554028	0.0005036484550675624	-4.734957019672256	-62.92725526499833	8.66743238024363	-1.5184471217264162e-06	8.658522153742516e-10	7.798309793190564	-2.1833273167175298	-3.5287607178859624	0.5828770287021809	-0.5535699105426346	-3.4462463080914474e-06	-1.145770907431024e-15	-16.235095271642756	0.17684298704463663	-1.8779680560753524
1.7	5.272615486983543	0.2597760407149281	2.5886222653783206	0.5906787478011691	1.0451158319590368	-0.02050881619798648	35.250406351788726	-5.699768168151068	-14.152102969616246	-52.00958415410837	-2.1446846932057357	-6.770980122342385e-06	-1.1047205916389292e-09	-16.325892822239172	3.8166283079876875	4.146130820051091	-25.214757395659237	9.519910649235081	2.632912014422691e-06	-5.988841160704246e-16	-14.989411640426374	-1.4779591914357586	-9.762637619158541
1.717	4.6792884582661385	-1.4293086971632585	-2.06335859964195	0.5781324753664365	1.0266152899912686	0.009351211335638416	4.301223193395984	-1.7270270780195593	-6.505702573964425	-21.50428885411171	5.210175760777606	-2.909980725154046e-06	1.4684092920974076e-10	2.190010799833985	0.26000246676025185	-2.017365950551504	-6.47716283787719	4.291344095259288	-1.0362187374033446e-06	-1.3520737878541281e-15	-16.265661122113386	-1.4176544985698933	-1.6558469948634214
1.733	4.339776734327462	-1.1777858440404443	-0.8591161827078198	0.5628990687429127	1.0319762757484783	0.004505501399128661	10.681792710534314	-0.7362422761615237	-11.11770432442578	3.379136829251859	8.334666654837648	-4.7814621443043895e-06	1.9618420487348508e-10	-4.432627031534553	0.9947973355324353	-3.366041136420645	2.010903628446662	5.882718684285507	-1.5245877433581085e-06	1.798131959032351e-17	-17.026349647604647	-0.20450580371436855	-2.3657090733457995
1.75	4.577747736812307	1.2020343796393806	3.248611616050058	0.5705804844979119	1.043264219657328	-0.01693561527938662	33.64961970202248	-3.391237113829179	-13.390126302141642	-12.274924134189456	3.809430350466961	-5.7573642601324095e-06	3.418951928213308e-10	-20.831339064524496	4.530290122078284	1.994985274468843	-9.932762215410573	13.236633535085204	-1.0386334174829103e-06	-1.0107278869675092e-15	-16.002031523210896	-0.9600126063300285	-9.52261858723347
1.767	3.9199273601435936	6.022152678833008	1.821959890898358	0.5813295738894928	0.9935470453410999	-0.030412024126912962	34.629653879110734	-8.678780747981975	-9.727376040292107	11.10409908354278	-8.734068079481258	6.753484928423889e-07	-7.97169313322658e-10	-39.01637982637911	10.82607256214596	9.112149167963493	-7.403555704458972	19.315124926666137	3.5574564951502514e-06	8.961200791473787e-16	-14.141555414145866	-7.459654133754746	-12.399481384731203
1.783	3.9793954293786102	5.265448464260911	5.076444816965722	0.5666270646381906	0.9856257636567347	-0.04559032596969779	48.328338946258825	-7.400901658466852	-10.221998272065477	25.110585725203595	-6.373434263900948	-3.1364816353510756e-06	1.3135472687058618e-09	-61.419862408832444	11.398607744539024	12.964129301228683	26.924423765317183	28.0351993153397	5.388169474298843e-06	6.285263775445057e-17	-14.710166806785917	-4.152971451989808	-17.737725633393968
1.8	3.5106445837213176	4.265973722925166	3.471088177939255	0.5705658409856514	0.9858568627081514	-0.022416872110851117	30.902772621376045	-4.080540245326855	-5.761078277693424	37.7906788551881	0.40923042558505274	3.0087105208923803e-06	3.928601727065735e-10	-42.05552343514458	8.250238020755113	9.58259811281021	5.951880065579134	18.47446841686139	5.002224256179296e-06	-1.5495743841053606e-15	-14.508536082824342	-3.6867851573742887	-12.913723993376227
1.817	3.9708461572955374	2.012177387982555	0.4273241249605495	0.5667046514827586	1.016049029390025	0.024464808596297828	2.9845353137224695	0.6089858713028278	-2.4693279126410523	32.615122841825546	9.462454599361255	7.543774862790392e-07	1.2065406866160552e-09	-4.248054305577298	1.0398930935606483	-1.8185770092280649	-12.800603734202177	10.724715245745905	-4.3297940311756955e-06	7.964748559817261e-16	-16.87686747952834	-1.418394793432292	-2.4435136642063426
1.833	4.820751069886656	2.705060338721443	0.5661579451242604	0.5783819889451339	0.9816018703243602	-0.027109614180920796	22.55446676323688	-6.85409525134699	-1.6025080611573337	-4.433587856264485	-1.6782763570825545	2.2850776451774848e-08	-3.0756184900982116e-10	-35.999412855539106	7.65943021288778	8.856516840159294	21.656329163991607	16.11940193377418	3.863985225103691e-06	-7.340560094534204e-16	-15.208590817439093	-4.972370237780136	-11.67473457273347
